<svg xmlns="http://www.w3.org/2000/svg" version="1.1" xmlns:xlink="http://www.w3.org/1999/xlink" xmlns:svgjs="http://svgjs.dev/svgjs" width="1440" height="560" preserveAspectRatio="none" viewBox="0 0 1440 560"><g mask="url(&quot;#SvgjsMask1082&quot;)" fill="none"><rect width="1440" height="560" x="0" y="0" fill="url(&quot;#SvgjsLinearGradient1083&quot;)"></rect><path d="M0 0L478.65 0L0 237.66z" fill="rgba(255, 255, 255, .1)"></path><path d="M0 237.66L478.65 0L955.12 0L0 341.72z" fill="rgba(255, 255, 255, .075)"></path><path d="M0 341.72L955.12 0L1138.75 0L0 407.14000000000004z" fill="rgba(255, 255, 255, .05)"></path><path d="M0 407.14000000000004L1138.75 0L1246.69 0L0 508.88000000000005z" fill="rgba(255, 255, 255, .025)"></path><path d="M1440 560L914.51 560L1440 557.34z" fill="rgba(0, 0, 0, .1)"></path><path d="M1440 557.34L914.51 560L573.3199999999999 560L1440 250.47000000000003z" fill="rgba(0, 0, 0, .075)"></path><path d="M1440 250.46999999999997L573.3199999999999 560L337.87999999999994 560L1440 229.31999999999996z" fill="rgba(0, 0, 0, .05)"></path><path d="M1440 229.32L337.8799999999999 560L322.5699999999999 560L1440 164.11z" fill="rgba(0, 0, 0, .025)"></path></g><defs><mask id="SvgjsMask1082"><rect width="1440" height="560" fill="#ffffff"></rect></mask><linearGradient x1="15.28%" y1="-39.29%" x2="84.72%" y2="139.29%" gradientUnits="userSpaceOnUse" id="SvgjsLinearGradient1083"><stop stop-color="#0e2a47" offset="0"></stop><stop stop-color="rgba(1, 59, 135, 1)" offset="1"></stop></linearGradient></defs></svg>