<svg xmlns="http://www.w3.org/2000/svg" version="1.1" xmlns:xlink="http://www.w3.org/1999/xlink" xmlns:svgjs="http://svgjs.dev/svgjs" width="1440" height="560" preserveAspectRatio="none" viewBox="0 0 1440 560"><g mask="url(&quot;#SvgjsMask1132&quot;)" fill="none"><rect width="1440" height="560" x="0" y="0" fill="#0e2a47"></rect><path d="M6.07 -9.33L34.65 7.17L34.65 40.17L6.07 56.67L-22.51 40.17L-22.51 7.17zM34.65 139.17L63.23 155.67L63.23 188.67L34.65 205.17L6.07 188.67L6.07 155.67zM6.07 188.67L34.65 205.17L34.65 238.17L6.07 254.67L-22.51 238.17L-22.51 205.17zM6.07 287.67L34.65 304.17L34.65 337.17L6.07 353.67L-22.51 337.17L-22.51 304.17zM34.65 337.17L63.23 353.67L63.23 386.67L34.65 403.17L6.07 386.67L6.07 353.67zM6.07 485.67L34.65 502.17L34.65 535.17L6.07 551.67L-22.51 535.17L-22.51 502.17zM63.23 89.67L91.81 106.17L91.81 139.17L63.23 155.67L34.65 139.17L34.65 106.17zM63.23 287.67L91.81 304.17L91.81 337.17L63.23 353.67L34.65 337.17L34.65 304.17zM91.81 337.17L120.39 353.67L120.39 386.67L91.81 403.17L63.23 386.67L63.23 353.67zM63.23 386.67L91.81 403.17L91.81 436.17L63.23 452.67L34.65 436.17L34.65 403.17zM91.81 436.17L120.39 452.67L120.39 485.67L91.81 502.17L63.23 485.67L63.23 452.67zM91.81 535.17L120.39 551.67L120.39 584.67L91.81 601.17L63.23 584.67L63.23 551.67zM120.39 -9.33L148.97 7.17L148.97 40.17L120.39 56.67L91.81 40.17L91.81 7.17zM148.97 40.17L177.55 56.67L177.55 89.67L148.97 106.17L120.39 89.67L120.39 56.67zM120.39 188.67L148.97 205.17L148.97 238.17L120.39 254.67L91.81 238.17L91.81 205.17zM177.55 -9.33L206.13 7.17L206.13 40.17L177.55 56.67L148.97 40.17L148.97 7.17zM206.13 238.17L234.71 254.67L234.71 287.67L206.13 304.17L177.55 287.67L177.55 254.67zM177.55 287.67L206.13 304.17L206.13 337.17L177.55 353.67L148.97 337.17L148.97 304.17zM177.55 386.67L206.13 403.17L206.13 436.17L177.55 452.67L148.97 436.17L148.97 403.17zM177.55 485.67L206.13 502.17L206.13 535.17L177.55 551.67L148.97 535.17L148.97 502.17zM234.71 -9.33L263.29 7.17L263.29 40.17L234.71 56.67L206.13 40.17L206.13 7.17zM263.29 40.17L291.87 56.67L291.87 89.67L263.29 106.17L234.71 89.67L234.71 56.67zM234.71 89.67L263.29 106.17L263.29 139.17L234.71 155.67L206.13 139.17L206.13 106.17zM263.29 139.17L291.87 155.67L291.87 188.67L263.29 205.17L234.71 188.67L234.71 155.67zM234.71 188.67L263.29 205.17L263.29 238.17L234.71 254.67L206.13 238.17L206.13 205.17zM263.29 337.17L291.87 353.67L291.87 386.67L263.29 403.17L234.71 386.67L234.71 353.67zM234.71 386.67L263.29 403.17L263.29 436.17L234.71 452.67L206.13 436.17L206.13 403.17zM263.29 436.17L291.87 452.67L291.87 485.67L263.29 502.17L234.71 485.67L234.71 452.67zM234.71 485.67L263.29 502.17L263.29 535.17L234.71 551.67L206.13 535.17L206.13 502.17zM263.29 535.17L291.87 551.67L291.87 584.67L263.29 601.17L234.71 584.67L234.71 551.67zM291.87 -9.33L320.45 7.17L320.45 40.17L291.87 56.67L263.29 40.17L263.29 7.17zM291.87 89.67L320.45 106.17L320.45 139.17L291.87 155.67L263.29 139.17L263.29 106.17zM320.45 139.17L349.03 155.67L349.03 188.67L320.45 205.17L291.87 188.67L291.87 155.67zM291.87 287.67L320.45 304.17L320.45 337.17L291.87 353.67L263.29 337.17L263.29 304.17zM291.87 386.67L320.45 403.17L320.45 436.17L291.87 452.67L263.29 436.17L263.29 403.17zM320.45 535.17L349.03 551.67L349.03 584.67L320.45 601.17L291.87 584.67L291.87 551.67zM377.61 139.17L406.19 155.67L406.19 188.67L377.61 205.17L349.03 188.67L349.03 155.67zM377.61 238.17L406.19 254.67L406.19 287.67L377.61 304.17L349.03 287.67L349.03 254.67zM349.03 287.67L377.61 304.17L377.61 337.17L349.03 353.67L320.45 337.17L320.45 304.17zM377.61 337.17L406.19 353.67L406.19 386.67L377.61 403.17L349.03 386.67L349.03 353.67zM377.61 436.17L406.19 452.67L406.19 485.67L377.61 502.17L349.03 485.67L349.03 452.67zM377.61 535.17L406.19 551.67L406.19 584.67L377.61 601.17L349.03 584.67L349.03 551.67zM406.19 89.67L434.76 106.17L434.76 139.17L406.19 155.67L377.61 139.17L377.61 106.17zM406.19 188.67L434.76 205.17L434.76 238.17L406.19 254.67L377.61 238.17L377.61 205.17zM406.19 287.67L434.76 304.17L434.76 337.17L406.19 353.67L377.61 337.17L377.61 304.17zM406.19 485.67L434.76 502.17L434.76 535.17L406.19 551.67L377.61 535.17L377.61 502.17zM491.92 337.17L520.5 353.67L520.5 386.67L491.92 403.17L463.34 386.67L463.34 353.67zM463.34 485.67L491.92 502.17L491.92 535.17L463.34 551.67L434.76 535.17L434.76 502.17zM520.5 -9.33L549.08 7.17L549.08 40.17L520.5 56.67L491.92 40.17L491.92 7.17zM520.5 188.67L549.08 205.17L549.08 238.17L520.5 254.67L491.92 238.17L491.92 205.17zM520.5 287.67L549.08 304.17L549.08 337.17L520.5 353.67L491.92 337.17L491.92 304.17zM549.08 436.17L577.66 452.67L577.66 485.67L549.08 502.17L520.5 485.67L520.5 452.67zM520.5 485.67L549.08 502.17L549.08 535.17L520.5 551.67L491.92 535.17L491.92 502.17zM606.24 238.17L634.82 254.67L634.82 287.67L606.24 304.17L577.66 287.67L577.66 254.67zM577.66 386.67L606.24 403.17L606.24 436.17L577.66 452.67L549.08 436.17L549.08 403.17zM634.82 -9.33L663.4 7.17L663.4 40.17L634.82 56.67L606.24 40.17L606.24 7.17zM663.4 40.17L691.98 56.67L691.98 89.67L663.4 106.17L634.82 89.67L634.82 56.67zM634.82 188.67L663.4 205.17L663.4 238.17L634.82 254.67L606.24 238.17L606.24 205.17zM634.82 485.67L663.4 502.17L663.4 535.17L634.82 551.67L606.24 535.17L606.24 502.17zM663.4 535.17L691.98 551.67L691.98 584.67L663.4 601.17L634.82 584.67L634.82 551.67zM691.98 89.67L720.56 106.17L720.56 139.17L691.98 155.67L663.4 139.17L663.4 106.17zM720.56 238.17L749.14 254.67L749.14 287.67L720.56 304.17L691.98 287.67L691.98 254.67zM691.98 287.67L720.56 304.17L720.56 337.17L691.98 353.67L663.4 337.17L663.4 304.17zM720.56 337.17L749.14 353.67L749.14 386.67L720.56 403.17L691.98 386.67L691.98 353.67zM691.98 386.67L720.56 403.17L720.56 436.17L691.98 452.67L663.4 436.17L663.4 403.17zM720.56 436.17L749.14 452.67L749.14 485.67L720.56 502.17L691.98 485.67L691.98 452.67zM749.14 89.67L777.72 106.17L777.72 139.17L749.14 155.67L720.56 139.17L720.56 106.17zM777.72 139.17L806.3 155.67L806.3 188.67L777.72 205.17L749.14 188.67L749.14 155.67zM777.72 238.17L806.3 254.67L806.3 287.67L777.72 304.17L749.14 287.67L749.14 254.67zM749.14 287.67L777.72 304.17L777.72 337.17L749.14 353.67L720.56 337.17L720.56 304.17zM749.14 386.67L777.72 403.17L777.72 436.17L749.14 452.67L720.56 436.17L720.56 403.17zM834.88 40.17L863.46 56.67L863.46 89.67L834.88 106.17L806.3 89.67L806.3 56.67zM834.88 238.17L863.46 254.67L863.46 287.67L834.88 304.17L806.3 287.67L806.3 254.67zM834.88 436.17L863.46 452.67L863.46 485.67L834.88 502.17L806.3 485.67L806.3 452.67zM806.3 485.67L834.88 502.17L834.88 535.17L806.3 551.67L777.72 535.17L777.72 502.17zM863.46 -9.33L892.04 7.17L892.04 40.17L863.46 56.67L834.88 40.17L834.88 7.17zM863.46 89.67L892.04 106.17L892.04 139.17L863.46 155.67L834.88 139.17L834.88 106.17zM892.04 238.17L920.62 254.67L920.62 287.67L892.04 304.17L863.46 287.67L863.46 254.67zM863.46 386.67L892.04 403.17L892.04 436.17L863.46 452.67L834.88 436.17L834.88 403.17zM892.04 436.17L920.62 452.67L920.62 485.67L892.04 502.17L863.46 485.67L863.46 452.67zM920.62 -9.33L949.2 7.17L949.2 40.17L920.62 56.67L892.04 40.17L892.04 7.17zM949.2 40.17L977.78 56.67L977.78 89.67L949.2 106.17L920.62 89.67L920.62 56.67zM920.62 188.67L949.2 205.17L949.2 238.17L920.62 254.67L892.04 238.17L892.04 205.17zM949.2 535.17L977.78 551.67L977.78 584.67L949.2 601.17L920.62 584.67L920.62 551.67zM977.78 287.67L1006.36 304.17L1006.36 337.17L977.78 353.67L949.2 337.17L949.2 304.17zM977.78 485.67L1006.36 502.17L1006.36 535.17L977.78 551.67L949.2 535.17L949.2 502.17zM1063.52 40.17L1092.1 56.67L1092.1 89.67L1063.52 106.17L1034.94 89.67L1034.94 56.67zM1063.52 139.17L1092.1 155.67L1092.1 188.67L1063.52 205.17L1034.94 188.67L1034.94 155.67zM1063.52 337.17L1092.1 353.67L1092.1 386.67L1063.52 403.17L1034.94 386.67L1034.94 353.67zM1063.52 535.17L1092.1 551.67L1092.1 584.67L1063.52 601.17L1034.94 584.67L1034.94 551.67zM1092.1 89.67L1120.68 106.17L1120.68 139.17L1092.1 155.67L1063.52 139.17L1063.52 106.17zM1120.68 139.17L1149.26 155.67L1149.26 188.67L1120.68 205.17L1092.1 188.67L1092.1 155.67zM1120.68 337.17L1149.26 353.67L1149.26 386.67L1120.68 403.17L1092.1 386.67L1092.1 353.67zM1120.68 535.17L1149.26 551.67L1149.26 584.67L1120.68 601.17L1092.1 584.67L1092.1 551.67zM1177.84 40.17L1206.42 56.67L1206.42 89.67L1177.84 106.17L1149.26 89.67L1149.26 56.67zM1149.26 386.67L1177.84 403.17L1177.84 436.17L1149.26 452.67L1120.68 436.17L1120.68 403.17zM1149.26 485.67L1177.84 502.17L1177.84 535.17L1149.26 551.67L1120.68 535.17L1120.68 502.17zM1177.84 535.17L1206.42 551.67L1206.42 584.67L1177.84 601.17L1149.26 584.67L1149.26 551.67zM1206.42 89.67L1234.99 106.17L1234.99 139.17L1206.42 155.67L1177.84 139.17L1177.84 106.17zM1234.99 139.17L1263.57 155.67L1263.57 188.67L1234.99 205.17L1206.42 188.67L1206.42 155.67zM1234.99 337.17L1263.57 353.67L1263.57 386.67L1234.99 403.17L1206.42 386.67L1206.42 353.67zM1234.99 436.17L1263.57 452.67L1263.57 485.67L1234.99 502.17L1206.42 485.67L1206.42 452.67zM1206.42 485.67L1234.99 502.17L1234.99 535.17L1206.42 551.67L1177.84 535.17L1177.84 502.17zM1234.99 535.17L1263.57 551.67L1263.57 584.67L1234.99 601.17L1206.42 584.67L1206.42 551.67zM1292.15 139.17L1320.73 155.67L1320.73 188.67L1292.15 205.17L1263.57 188.67L1263.57 155.67zM1263.57 188.67L1292.15 205.17L1292.15 238.17L1263.57 254.67L1234.99 238.17L1234.99 205.17zM1263.57 386.67L1292.15 403.17L1292.15 436.17L1263.57 452.67L1234.99 436.17L1234.99 403.17zM1292.15 436.17L1320.73 452.67L1320.73 485.67L1292.15 502.17L1263.57 485.67L1263.57 452.67zM1263.57 485.67L1292.15 502.17L1292.15 535.17L1263.57 551.67L1234.99 535.17L1234.99 502.17zM1292.15 535.17L1320.73 551.67L1320.73 584.67L1292.15 601.17L1263.57 584.67L1263.57 551.67zM1320.73 188.67L1349.31 205.17L1349.31 238.17L1320.73 254.67L1292.15 238.17L1292.15 205.17zM1349.31 337.17L1377.89 353.67L1377.89 386.67L1349.31 403.17L1320.73 386.67L1320.73 353.67zM1320.73 386.67L1349.31 403.17L1349.31 436.17L1320.73 452.67L1292.15 436.17L1292.15 403.17zM1320.73 485.67L1349.31 502.17L1349.31 535.17L1320.73 551.67L1292.15 535.17L1292.15 502.17zM1377.89 -9.33L1406.47 7.17L1406.47 40.17L1377.89 56.67L1349.31 40.17L1349.31 7.17zM1406.47 40.17L1435.05 56.67L1435.05 89.67L1406.47 106.17L1377.89 89.67L1377.89 56.67zM1377.89 188.67L1406.47 205.17L1406.47 238.17L1377.89 254.67L1349.31 238.17L1349.31 205.17zM1377.89 287.67L1406.47 304.17L1406.47 337.17L1377.89 353.67L1349.31 337.17L1349.31 304.17zM1406.47 337.17L1435.05 353.67L1435.05 386.67L1406.47 403.17L1377.89 386.67L1377.89 353.67zM1377.89 386.67L1406.47 403.17L1406.47 436.17L1377.89 452.67L1349.31 436.17L1349.31 403.17zM1406.47 436.17L1435.05 452.67L1435.05 485.67L1406.47 502.17L1377.89 485.67L1377.89 452.67zM1406.47 535.17L1435.05 551.67L1435.05 584.67L1406.47 601.17L1377.89 584.67L1377.89 551.67zM1435.05 89.67L1463.63 106.17L1463.63 139.17L1435.05 155.67L1406.47 139.17L1406.47 106.17zM1435.05 287.67L1463.63 304.17L1463.63 337.17L1435.05 353.67L1406.47 337.17L1406.47 304.17zM1463.63 337.17L1492.21 353.67L1492.21 386.67L1463.63 403.17L1435.05 386.67L1435.05 353.67zM1463.63 436.17L1492.21 452.67L1492.21 485.67L1463.63 502.17L1435.05 485.67L1435.05 452.67z" stroke="url(&quot;#SvgjsLinearGradient1133&quot;)" stroke-width="2"></path><path d="M2.77 -9.33 a3.3 3.3 0 1 0 6.6 0 a3.3 3.3 0 1 0 -6.6 0zM31.35 7.17 a3.3 3.3 0 1 0 6.6 0 a3.3 3.3 0 1 0 -6.6 0zM31.35 40.17 a3.3 3.3 0 1 0 6.6 0 a3.3 3.3 0 1 0 -6.6 0zM2.77 56.67 a3.3 3.3 0 1 0 6.6 0 a3.3 3.3 0 1 0 -6.6 0zM-25.81 40.17 a3.3 3.3 0 1 0 6.6 0 a3.3 3.3 0 1 0 -6.6 0zM-25.81 7.17 a3.3 3.3 0 1 0 6.6 0 a3.3 3.3 0 1 0 -6.6 0zM31.35 139.17 a3.3 3.3 0 1 0 6.6 0 a3.3 3.3 0 1 0 -6.6 0zM59.93 155.67 a3.3 3.3 0 1 0 6.6 0 a3.3 3.3 0 1 0 -6.6 0zM59.93 188.67 a3.3 3.3 0 1 0 6.6 0 a3.3 3.3 0 1 0 -6.6 0zM31.35 205.17 a3.3 3.3 0 1 0 6.6 0 a3.3 3.3 0 1 0 -6.6 0zM2.77 188.67 a3.3 3.3 0 1 0 6.6 0 a3.3 3.3 0 1 0 -6.6 0zM2.77 155.67 a3.3 3.3 0 1 0 6.6 0 a3.3 3.3 0 1 0 -6.6 0zM31.35 238.17 a3.3 3.3 0 1 0 6.6 0 a3.3 3.3 0 1 0 -6.6 0zM2.77 254.67 a3.3 3.3 0 1 0 6.6 0 a3.3 3.3 0 1 0 -6.6 0zM-25.81 238.17 a3.3 3.3 0 1 0 6.6 0 a3.3 3.3 0 1 0 -6.6 0zM-25.81 205.17 a3.3 3.3 0 1 0 6.6 0 a3.3 3.3 0 1 0 -6.6 0zM2.77 287.67 a3.3 3.3 0 1 0 6.6 0 a3.3 3.3 0 1 0 -6.6 0zM31.35 304.17 a3.3 3.3 0 1 0 6.6 0 a3.3 3.3 0 1 0 -6.6 0zM31.35 337.17 a3.3 3.3 0 1 0 6.6 0 a3.3 3.3 0 1 0 -6.6 0zM2.77 353.67 a3.3 3.3 0 1 0 6.6 0 a3.3 3.3 0 1 0 -6.6 0zM-25.81 337.17 a3.3 3.3 0 1 0 6.6 0 a3.3 3.3 0 1 0 -6.6 0zM-25.81 304.17 a3.3 3.3 0 1 0 6.6 0 a3.3 3.3 0 1 0 -6.6 0zM59.93 353.67 a3.3 3.3 0 1 0 6.6 0 a3.3 3.3 0 1 0 -6.6 0zM59.93 386.67 a3.3 3.3 0 1 0 6.6 0 a3.3 3.3 0 1 0 -6.6 0zM31.35 403.17 a3.3 3.3 0 1 0 6.6 0 a3.3 3.3 0 1 0 -6.6 0zM2.77 386.67 a3.3 3.3 0 1 0 6.6 0 a3.3 3.3 0 1 0 -6.6 0zM2.77 485.67 a3.3 3.3 0 1 0 6.6 0 a3.3 3.3 0 1 0 -6.6 0zM31.35 502.17 a3.3 3.3 0 1 0 6.6 0 a3.3 3.3 0 1 0 -6.6 0zM31.35 535.17 a3.3 3.3 0 1 0 6.6 0 a3.3 3.3 0 1 0 -6.6 0zM2.77 551.67 a3.3 3.3 0 1 0 6.6 0 a3.3 3.3 0 1 0 -6.6 0zM-25.81 535.17 a3.3 3.3 0 1 0 6.6 0 a3.3 3.3 0 1 0 -6.6 0zM-25.81 502.17 a3.3 3.3 0 1 0 6.6 0 a3.3 3.3 0 1 0 -6.6 0zM59.93 89.67 a3.3 3.3 0 1 0 6.6 0 a3.3 3.3 0 1 0 -6.6 0zM88.51 106.17 a3.3 3.3 0 1 0 6.6 0 a3.3 3.3 0 1 0 -6.6 0zM88.51 139.17 a3.3 3.3 0 1 0 6.6 0 a3.3 3.3 0 1 0 -6.6 0zM31.35 106.17 a3.3 3.3 0 1 0 6.6 0 a3.3 3.3 0 1 0 -6.6 0zM59.93 287.67 a3.3 3.3 0 1 0 6.6 0 a3.3 3.3 0 1 0 -6.6 0zM88.51 304.17 a3.3 3.3 0 1 0 6.6 0 a3.3 3.3 0 1 0 -6.6 0zM88.51 337.17 a3.3 3.3 0 1 0 6.6 0 a3.3 3.3 0 1 0 -6.6 0zM117.09 353.67 a3.3 3.3 0 1 0 6.6 0 a3.3 3.3 0 1 0 -6.6 0zM117.09 386.67 a3.3 3.3 0 1 0 6.6 0 a3.3 3.3 0 1 0 -6.6 0zM88.51 403.17 a3.3 3.3 0 1 0 6.6 0 a3.3 3.3 0 1 0 -6.6 0zM88.51 436.17 a3.3 3.3 0 1 0 6.6 0 a3.3 3.3 0 1 0 -6.6 0zM59.93 452.67 a3.3 3.3 0 1 0 6.6 0 a3.3 3.3 0 1 0 -6.6 0zM31.35 436.17 a3.3 3.3 0 1 0 6.6 0 a3.3 3.3 0 1 0 -6.6 0zM117.09 452.67 a3.3 3.3 0 1 0 6.6 0 a3.3 3.3 0 1 0 -6.6 0zM117.09 485.67 a3.3 3.3 0 1 0 6.6 0 a3.3 3.3 0 1 0 -6.6 0zM88.51 502.17 a3.3 3.3 0 1 0 6.6 0 a3.3 3.3 0 1 0 -6.6 0zM59.93 485.67 a3.3 3.3 0 1 0 6.6 0 a3.3 3.3 0 1 0 -6.6 0zM88.51 535.17 a3.3 3.3 0 1 0 6.6 0 a3.3 3.3 0 1 0 -6.6 0zM117.09 551.67 a3.3 3.3 0 1 0 6.6 0 a3.3 3.3 0 1 0 -6.6 0zM117.09 584.67 a3.3 3.3 0 1 0 6.6 0 a3.3 3.3 0 1 0 -6.6 0zM88.51 601.17 a3.3 3.3 0 1 0 6.6 0 a3.3 3.3 0 1 0 -6.6 0zM59.93 584.67 a3.3 3.3 0 1 0 6.6 0 a3.3 3.3 0 1 0 -6.6 0zM59.93 551.67 a3.3 3.3 0 1 0 6.6 0 a3.3 3.3 0 1 0 -6.6 0zM117.09 -9.33 a3.3 3.3 0 1 0 6.6 0 a3.3 3.3 0 1 0 -6.6 0zM145.67 7.17 a3.3 3.3 0 1 0 6.6 0 a3.3 3.3 0 1 0 -6.6 0zM145.67 40.17 a3.3 3.3 0 1 0 6.6 0 a3.3 3.3 0 1 0 -6.6 0zM117.09 56.67 a3.3 3.3 0 1 0 6.6 0 a3.3 3.3 0 1 0 -6.6 0zM88.51 40.17 a3.3 3.3 0 1 0 6.6 0 a3.3 3.3 0 1 0 -6.6 0zM88.51 7.17 a3.3 3.3 0 1 0 6.6 0 a3.3 3.3 0 1 0 -6.6 0zM174.25 56.67 a3.3 3.3 0 1 0 6.6 0 a3.3 3.3 0 1 0 -6.6 0zM174.25 89.67 a3.3 3.3 0 1 0 6.6 0 a3.3 3.3 0 1 0 -6.6 0zM145.67 106.17 a3.3 3.3 0 1 0 6.6 0 a3.3 3.3 0 1 0 -6.6 0zM117.09 89.67 a3.3 3.3 0 1 0 6.6 0 a3.3 3.3 0 1 0 -6.6 0zM117.09 188.67 a3.3 3.3 0 1 0 6.6 0 a3.3 3.3 0 1 0 -6.6 0zM145.67 205.17 a3.3 3.3 0 1 0 6.6 0 a3.3 3.3 0 1 0 -6.6 0zM145.67 238.17 a3.3 3.3 0 1 0 6.6 0 a3.3 3.3 0 1 0 -6.6 0zM117.09 254.67 a3.3 3.3 0 1 0 6.6 0 a3.3 3.3 0 1 0 -6.6 0zM88.51 238.17 a3.3 3.3 0 1 0 6.6 0 a3.3 3.3 0 1 0 -6.6 0zM88.51 205.17 a3.3 3.3 0 1 0 6.6 0 a3.3 3.3 0 1 0 -6.6 0zM174.25 -9.33 a3.3 3.3 0 1 0 6.6 0 a3.3 3.3 0 1 0 -6.6 0zM202.83 7.17 a3.3 3.3 0 1 0 6.6 0 a3.3 3.3 0 1 0 -6.6 0zM202.83 40.17 a3.3 3.3 0 1 0 6.6 0 a3.3 3.3 0 1 0 -6.6 0zM202.83 238.17 a3.3 3.3 0 1 0 6.6 0 a3.3 3.3 0 1 0 -6.6 0zM231.41 254.67 a3.3 3.3 0 1 0 6.6 0 a3.3 3.3 0 1 0 -6.6 0zM231.41 287.67 a3.3 3.3 0 1 0 6.6 0 a3.3 3.3 0 1 0 -6.6 0zM202.83 304.17 a3.3 3.3 0 1 0 6.6 0 a3.3 3.3 0 1 0 -6.6 0zM174.25 287.67 a3.3 3.3 0 1 0 6.6 0 a3.3 3.3 0 1 0 -6.6 0zM174.25 254.67 a3.3 3.3 0 1 0 6.6 0 a3.3 3.3 0 1 0 -6.6 0zM202.83 337.17 a3.3 3.3 0 1 0 6.6 0 a3.3 3.3 0 1 0 -6.6 0zM174.25 353.67 a3.3 3.3 0 1 0 6.6 0 a3.3 3.3 0 1 0 -6.6 0zM145.67 337.17 a3.3 3.3 0 1 0 6.6 0 a3.3 3.3 0 1 0 -6.6 0zM145.67 304.17 a3.3 3.3 0 1 0 6.6 0 a3.3 3.3 0 1 0 -6.6 0zM174.25 386.67 a3.3 3.3 0 1 0 6.6 0 a3.3 3.3 0 1 0 -6.6 0zM202.83 403.17 a3.3 3.3 0 1 0 6.6 0 a3.3 3.3 0 1 0 -6.6 0zM202.83 436.17 a3.3 3.3 0 1 0 6.6 0 a3.3 3.3 0 1 0 -6.6 0zM174.25 452.67 a3.3 3.3 0 1 0 6.6 0 a3.3 3.3 0 1 0 -6.6 0zM145.67 436.17 a3.3 3.3 0 1 0 6.6 0 a3.3 3.3 0 1 0 -6.6 0zM145.67 403.17 a3.3 3.3 0 1 0 6.6 0 a3.3 3.3 0 1 0 -6.6 0zM174.25 485.67 a3.3 3.3 0 1 0 6.6 0 a3.3 3.3 0 1 0 -6.6 0zM202.83 502.17 a3.3 3.3 0 1 0 6.6 0 a3.3 3.3 0 1 0 -6.6 0zM202.83 535.17 a3.3 3.3 0 1 0 6.6 0 a3.3 3.3 0 1 0 -6.6 0zM174.25 551.67 a3.3 3.3 0 1 0 6.6 0 a3.3 3.3 0 1 0 -6.6 0zM145.67 535.17 a3.3 3.3 0 1 0 6.6 0 a3.3 3.3 0 1 0 -6.6 0zM145.67 502.17 a3.3 3.3 0 1 0 6.6 0 a3.3 3.3 0 1 0 -6.6 0zM231.41 -9.33 a3.3 3.3 0 1 0 6.6 0 a3.3 3.3 0 1 0 -6.6 0zM259.99 7.17 a3.3 3.3 0 1 0 6.6 0 a3.3 3.3 0 1 0 -6.6 0zM259.99 40.17 a3.3 3.3 0 1 0 6.6 0 a3.3 3.3 0 1 0 -6.6 0zM231.41 56.67 a3.3 3.3 0 1 0 6.6 0 a3.3 3.3 0 1 0 -6.6 0zM288.57 56.67 a3.3 3.3 0 1 0 6.6 0 a3.3 3.3 0 1 0 -6.6 0zM288.57 89.67 a3.3 3.3 0 1 0 6.6 0 a3.3 3.3 0 1 0 -6.6 0zM259.99 106.17 a3.3 3.3 0 1 0 6.6 0 a3.3 3.3 0 1 0 -6.6 0zM231.41 89.67 a3.3 3.3 0 1 0 6.6 0 a3.3 3.3 0 1 0 -6.6 0zM259.99 139.17 a3.3 3.3 0 1 0 6.6 0 a3.3 3.3 0 1 0 -6.6 0zM231.41 155.67 a3.3 3.3 0 1 0 6.6 0 a3.3 3.3 0 1 0 -6.6 0zM202.83 139.17 a3.3 3.3 0 1 0 6.6 0 a3.3 3.3 0 1 0 -6.6 0zM202.83 106.17 a3.3 3.3 0 1 0 6.6 0 a3.3 3.3 0 1 0 -6.6 0zM288.57 155.67 a3.3 3.3 0 1 0 6.6 0 a3.3 3.3 0 1 0 -6.6 0zM288.57 188.67 a3.3 3.3 0 1 0 6.6 0 a3.3 3.3 0 1 0 -6.6 0zM259.99 205.17 a3.3 3.3 0 1 0 6.6 0 a3.3 3.3 0 1 0 -6.6 0zM231.41 188.67 a3.3 3.3 0 1 0 6.6 0 a3.3 3.3 0 1 0 -6.6 0zM259.99 238.17 a3.3 3.3 0 1 0 6.6 0 a3.3 3.3 0 1 0 -6.6 0zM202.83 205.17 a3.3 3.3 0 1 0 6.6 0 a3.3 3.3 0 1 0 -6.6 0zM259.99 337.17 a3.3 3.3 0 1 0 6.6 0 a3.3 3.3 0 1 0 -6.6 0zM288.57 353.67 a3.3 3.3 0 1 0 6.6 0 a3.3 3.3 0 1 0 -6.6 0zM288.57 386.67 a3.3 3.3 0 1 0 6.6 0 a3.3 3.3 0 1 0 -6.6 0zM259.99 403.17 a3.3 3.3 0 1 0 6.6 0 a3.3 3.3 0 1 0 -6.6 0zM231.41 386.67 a3.3 3.3 0 1 0 6.6 0 a3.3 3.3 0 1 0 -6.6 0zM231.41 353.67 a3.3 3.3 0 1 0 6.6 0 a3.3 3.3 0 1 0 -6.6 0zM259.99 436.17 a3.3 3.3 0 1 0 6.6 0 a3.3 3.3 0 1 0 -6.6 0zM231.41 452.67 a3.3 3.3 0 1 0 6.6 0 a3.3 3.3 0 1 0 -6.6 0zM288.57 452.67 a3.3 3.3 0 1 0 6.6 0 a3.3 3.3 0 1 0 -6.6 0zM288.57 485.67 a3.3 3.3 0 1 0 6.6 0 a3.3 3.3 0 1 0 -6.6 0zM259.99 502.17 a3.3 3.3 0 1 0 6.6 0 a3.3 3.3 0 1 0 -6.6 0zM231.41 485.67 a3.3 3.3 0 1 0 6.6 0 a3.3 3.3 0 1 0 -6.6 0zM259.99 535.17 a3.3 3.3 0 1 0 6.6 0 a3.3 3.3 0 1 0 -6.6 0zM231.41 551.67 a3.3 3.3 0 1 0 6.6 0 a3.3 3.3 0 1 0 -6.6 0zM288.57 551.67 a3.3 3.3 0 1 0 6.6 0 a3.3 3.3 0 1 0 -6.6 0zM288.57 584.67 a3.3 3.3 0 1 0 6.6 0 a3.3 3.3 0 1 0 -6.6 0zM259.99 601.17 a3.3 3.3 0 1 0 6.6 0 a3.3 3.3 0 1 0 -6.6 0zM231.41 584.67 a3.3 3.3 0 1 0 6.6 0 a3.3 3.3 0 1 0 -6.6 0zM288.57 -9.33 a3.3 3.3 0 1 0 6.6 0 a3.3 3.3 0 1 0 -6.6 0zM317.15 7.17 a3.3 3.3 0 1 0 6.6 0 a3.3 3.3 0 1 0 -6.6 0zM317.15 40.17 a3.3 3.3 0 1 0 6.6 0 a3.3 3.3 0 1 0 -6.6 0zM317.15 106.17 a3.3 3.3 0 1 0 6.6 0 a3.3 3.3 0 1 0 -6.6 0zM317.15 139.17 a3.3 3.3 0 1 0 6.6 0 a3.3 3.3 0 1 0 -6.6 0zM345.73 155.67 a3.3 3.3 0 1 0 6.6 0 a3.3 3.3 0 1 0 -6.6 0zM345.73 188.67 a3.3 3.3 0 1 0 6.6 0 a3.3 3.3 0 1 0 -6.6 0zM317.15 205.17 a3.3 3.3 0 1 0 6.6 0 a3.3 3.3 0 1 0 -6.6 0zM288.57 287.67 a3.3 3.3 0 1 0 6.6 0 a3.3 3.3 0 1 0 -6.6 0zM317.15 304.17 a3.3 3.3 0 1 0 6.6 0 a3.3 3.3 0 1 0 -6.6 0zM317.15 337.17 a3.3 3.3 0 1 0 6.6 0 a3.3 3.3 0 1 0 -6.6 0zM259.99 304.17 a3.3 3.3 0 1 0 6.6 0 a3.3 3.3 0 1 0 -6.6 0zM317.15 403.17 a3.3 3.3 0 1 0 6.6 0 a3.3 3.3 0 1 0 -6.6 0zM317.15 436.17 a3.3 3.3 0 1 0 6.6 0 a3.3 3.3 0 1 0 -6.6 0zM317.15 535.17 a3.3 3.3 0 1 0 6.6 0 a3.3 3.3 0 1 0 -6.6 0zM345.73 551.67 a3.3 3.3 0 1 0 6.6 0 a3.3 3.3 0 1 0 -6.6 0zM345.73 584.67 a3.3 3.3 0 1 0 6.6 0 a3.3 3.3 0 1 0 -6.6 0zM317.15 601.17 a3.3 3.3 0 1 0 6.6 0 a3.3 3.3 0 1 0 -6.6 0zM374.31 139.17 a3.3 3.3 0 1 0 6.6 0 a3.3 3.3 0 1 0 -6.6 0zM402.89 155.67 a3.3 3.3 0 1 0 6.6 0 a3.3 3.3 0 1 0 -6.6 0zM402.89 188.67 a3.3 3.3 0 1 0 6.6 0 a3.3 3.3 0 1 0 -6.6 0zM374.31 205.17 a3.3 3.3 0 1 0 6.6 0 a3.3 3.3 0 1 0 -6.6 0zM374.31 238.17 a3.3 3.3 0 1 0 6.6 0 a3.3 3.3 0 1 0 -6.6 0zM402.89 254.67 a3.3 3.3 0 1 0 6.6 0 a3.3 3.3 0 1 0 -6.6 0zM402.89 287.67 a3.3 3.3 0 1 0 6.6 0 a3.3 3.3 0 1 0 -6.6 0zM374.31 304.17 a3.3 3.3 0 1 0 6.6 0 a3.3 3.3 0 1 0 -6.6 0zM345.73 287.67 a3.3 3.3 0 1 0 6.6 0 a3.3 3.3 0 1 0 -6.6 0zM345.73 254.67 a3.3 3.3 0 1 0 6.6 0 a3.3 3.3 0 1 0 -6.6 0zM374.31 337.17 a3.3 3.3 0 1 0 6.6 0 a3.3 3.3 0 1 0 -6.6 0zM345.73 353.67 a3.3 3.3 0 1 0 6.6 0 a3.3 3.3 0 1 0 -6.6 0zM402.89 353.67 a3.3 3.3 0 1 0 6.6 0 a3.3 3.3 0 1 0 -6.6 0zM402.89 386.67 a3.3 3.3 0 1 0 6.6 0 a3.3 3.3 0 1 0 -6.6 0zM374.31 403.17 a3.3 3.3 0 1 0 6.6 0 a3.3 3.3 0 1 0 -6.6 0zM345.73 386.67 a3.3 3.3 0 1 0 6.6 0 a3.3 3.3 0 1 0 -6.6 0zM374.31 436.17 a3.3 3.3 0 1 0 6.6 0 a3.3 3.3 0 1 0 -6.6 0zM402.89 452.67 a3.3 3.3 0 1 0 6.6 0 a3.3 3.3 0 1 0 -6.6 0zM402.89 485.67 a3.3 3.3 0 1 0 6.6 0 a3.3 3.3 0 1 0 -6.6 0zM374.31 502.17 a3.3 3.3 0 1 0 6.6 0 a3.3 3.3 0 1 0 -6.6 0zM345.73 485.67 a3.3 3.3 0 1 0 6.6 0 a3.3 3.3 0 1 0 -6.6 0zM345.73 452.67 a3.3 3.3 0 1 0 6.6 0 a3.3 3.3 0 1 0 -6.6 0zM374.31 535.17 a3.3 3.3 0 1 0 6.6 0 a3.3 3.3 0 1 0 -6.6 0zM402.89 551.67 a3.3 3.3 0 1 0 6.6 0 a3.3 3.3 0 1 0 -6.6 0zM402.89 584.67 a3.3 3.3 0 1 0 6.6 0 a3.3 3.3 0 1 0 -6.6 0zM374.31 601.17 a3.3 3.3 0 1 0 6.6 0 a3.3 3.3 0 1 0 -6.6 0zM402.89 89.67 a3.3 3.3 0 1 0 6.6 0 a3.3 3.3 0 1 0 -6.6 0zM431.46 106.17 a3.3 3.3 0 1 0 6.6 0 a3.3 3.3 0 1 0 -6.6 0zM431.46 139.17 a3.3 3.3 0 1 0 6.6 0 a3.3 3.3 0 1 0 -6.6 0zM374.31 106.17 a3.3 3.3 0 1 0 6.6 0 a3.3 3.3 0 1 0 -6.6 0zM431.46 205.17 a3.3 3.3 0 1 0 6.6 0 a3.3 3.3 0 1 0 -6.6 0zM431.46 238.17 a3.3 3.3 0 1 0 6.6 0 a3.3 3.3 0 1 0 -6.6 0zM431.46 304.17 a3.3 3.3 0 1 0 6.6 0 a3.3 3.3 0 1 0 -6.6 0zM431.46 337.17 a3.3 3.3 0 1 0 6.6 0 a3.3 3.3 0 1 0 -6.6 0zM431.46 502.17 a3.3 3.3 0 1 0 6.6 0 a3.3 3.3 0 1 0 -6.6 0zM431.46 535.17 a3.3 3.3 0 1 0 6.6 0 a3.3 3.3 0 1 0 -6.6 0zM488.62 337.17 a3.3 3.3 0 1 0 6.6 0 a3.3 3.3 0 1 0 -6.6 0zM517.2 353.67 a3.3 3.3 0 1 0 6.6 0 a3.3 3.3 0 1 0 -6.6 0zM517.2 386.67 a3.3 3.3 0 1 0 6.6 0 a3.3 3.3 0 1 0 -6.6 0zM488.62 403.17 a3.3 3.3 0 1 0 6.6 0 a3.3 3.3 0 1 0 -6.6 0zM460.04 386.67 a3.3 3.3 0 1 0 6.6 0 a3.3 3.3 0 1 0 -6.6 0zM460.04 353.67 a3.3 3.3 0 1 0 6.6 0 a3.3 3.3 0 1 0 -6.6 0zM460.04 485.67 a3.3 3.3 0 1 0 6.6 0 a3.3 3.3 0 1 0 -6.6 0zM488.62 502.17 a3.3 3.3 0 1 0 6.6 0 a3.3 3.3 0 1 0 -6.6 0zM488.62 535.17 a3.3 3.3 0 1 0 6.6 0 a3.3 3.3 0 1 0 -6.6 0zM460.04 551.67 a3.3 3.3 0 1 0 6.6 0 a3.3 3.3 0 1 0 -6.6 0zM517.2 -9.33 a3.3 3.3 0 1 0 6.6 0 a3.3 3.3 0 1 0 -6.6 0zM545.78 7.17 a3.3 3.3 0 1 0 6.6 0 a3.3 3.3 0 1 0 -6.6 0zM545.78 40.17 a3.3 3.3 0 1 0 6.6 0 a3.3 3.3 0 1 0 -6.6 0zM517.2 56.67 a3.3 3.3 0 1 0 6.6 0 a3.3 3.3 0 1 0 -6.6 0zM488.62 40.17 a3.3 3.3 0 1 0 6.6 0 a3.3 3.3 0 1 0 -6.6 0zM488.62 7.17 a3.3 3.3 0 1 0 6.6 0 a3.3 3.3 0 1 0 -6.6 0zM517.2 188.67 a3.3 3.3 0 1 0 6.6 0 a3.3 3.3 0 1 0 -6.6 0zM545.78 205.17 a3.3 3.3 0 1 0 6.6 0 a3.3 3.3 0 1 0 -6.6 0zM545.78 238.17 a3.3 3.3 0 1 0 6.6 0 a3.3 3.3 0 1 0 -6.6 0zM517.2 254.67 a3.3 3.3 0 1 0 6.6 0 a3.3 3.3 0 1 0 -6.6 0zM488.62 238.17 a3.3 3.3 0 1 0 6.6 0 a3.3 3.3 0 1 0 -6.6 0zM488.62 205.17 a3.3 3.3 0 1 0 6.6 0 a3.3 3.3 0 1 0 -6.6 0zM517.2 287.67 a3.3 3.3 0 1 0 6.6 0 a3.3 3.3 0 1 0 -6.6 0zM545.78 304.17 a3.3 3.3 0 1 0 6.6 0 a3.3 3.3 0 1 0 -6.6 0zM545.78 337.17 a3.3 3.3 0 1 0 6.6 0 a3.3 3.3 0 1 0 -6.6 0zM488.62 304.17 a3.3 3.3 0 1 0 6.6 0 a3.3 3.3 0 1 0 -6.6 0zM545.78 436.17 a3.3 3.3 0 1 0 6.6 0 a3.3 3.3 0 1 0 -6.6 0zM574.36 452.67 a3.3 3.3 0 1 0 6.6 0 a3.3 3.3 0 1 0 -6.6 0zM574.36 485.67 a3.3 3.3 0 1 0 6.6 0 a3.3 3.3 0 1 0 -6.6 0zM545.78 502.17 a3.3 3.3 0 1 0 6.6 0 a3.3 3.3 0 1 0 -6.6 0zM517.2 485.67 a3.3 3.3 0 1 0 6.6 0 a3.3 3.3 0 1 0 -6.6 0zM517.2 452.67 a3.3 3.3 0 1 0 6.6 0 a3.3 3.3 0 1 0 -6.6 0zM545.78 535.17 a3.3 3.3 0 1 0 6.6 0 a3.3 3.3 0 1 0 -6.6 0zM517.2 551.67 a3.3 3.3 0 1 0 6.6 0 a3.3 3.3 0 1 0 -6.6 0zM602.94 238.17 a3.3 3.3 0 1 0 6.6 0 a3.3 3.3 0 1 0 -6.6 0zM631.52 254.67 a3.3 3.3 0 1 0 6.6 0 a3.3 3.3 0 1 0 -6.6 0zM631.52 287.67 a3.3 3.3 0 1 0 6.6 0 a3.3 3.3 0 1 0 -6.6 0zM602.94 304.17 a3.3 3.3 0 1 0 6.6 0 a3.3 3.3 0 1 0 -6.6 0zM574.36 287.67 a3.3 3.3 0 1 0 6.6 0 a3.3 3.3 0 1 0 -6.6 0zM574.36 254.67 a3.3 3.3 0 1 0 6.6 0 a3.3 3.3 0 1 0 -6.6 0zM574.36 386.67 a3.3 3.3 0 1 0 6.6 0 a3.3 3.3 0 1 0 -6.6 0zM602.94 403.17 a3.3 3.3 0 1 0 6.6 0 a3.3 3.3 0 1 0 -6.6 0zM602.94 436.17 a3.3 3.3 0 1 0 6.6 0 a3.3 3.3 0 1 0 -6.6 0zM545.78 403.17 a3.3 3.3 0 1 0 6.6 0 a3.3 3.3 0 1 0 -6.6 0zM631.52 -9.33 a3.3 3.3 0 1 0 6.6 0 a3.3 3.3 0 1 0 -6.6 0zM660.1 7.17 a3.3 3.3 0 1 0 6.6 0 a3.3 3.3 0 1 0 -6.6 0zM660.1 40.17 a3.3 3.3 0 1 0 6.6 0 a3.3 3.3 0 1 0 -6.6 0zM631.52 56.67 a3.3 3.3 0 1 0 6.6 0 a3.3 3.3 0 1 0 -6.6 0zM602.94 40.17 a3.3 3.3 0 1 0 6.6 0 a3.3 3.3 0 1 0 -6.6 0zM602.94 7.17 a3.3 3.3 0 1 0 6.6 0 a3.3 3.3 0 1 0 -6.6 0zM688.68 56.67 a3.3 3.3 0 1 0 6.6 0 a3.3 3.3 0 1 0 -6.6 0zM688.68 89.67 a3.3 3.3 0 1 0 6.6 0 a3.3 3.3 0 1 0 -6.6 0zM660.1 106.17 a3.3 3.3 0 1 0 6.6 0 a3.3 3.3 0 1 0 -6.6 0zM631.52 89.67 a3.3 3.3 0 1 0 6.6 0 a3.3 3.3 0 1 0 -6.6 0zM631.52 188.67 a3.3 3.3 0 1 0 6.6 0 a3.3 3.3 0 1 0 -6.6 0zM660.1 205.17 a3.3 3.3 0 1 0 6.6 0 a3.3 3.3 0 1 0 -6.6 0zM660.1 238.17 a3.3 3.3 0 1 0 6.6 0 a3.3 3.3 0 1 0 -6.6 0zM602.94 205.17 a3.3 3.3 0 1 0 6.6 0 a3.3 3.3 0 1 0 -6.6 0zM631.52 485.67 a3.3 3.3 0 1 0 6.6 0 a3.3 3.3 0 1 0 -6.6 0zM660.1 502.17 a3.3 3.3 0 1 0 6.6 0 a3.3 3.3 0 1 0 -6.6 0zM660.1 535.17 a3.3 3.3 0 1 0 6.6 0 a3.3 3.3 0 1 0 -6.6 0zM631.52 551.67 a3.3 3.3 0 1 0 6.6 0 a3.3 3.3 0 1 0 -6.6 0zM602.94 535.17 a3.3 3.3 0 1 0 6.6 0 a3.3 3.3 0 1 0 -6.6 0zM602.94 502.17 a3.3 3.3 0 1 0 6.6 0 a3.3 3.3 0 1 0 -6.6 0zM688.68 551.67 a3.3 3.3 0 1 0 6.6 0 a3.3 3.3 0 1 0 -6.6 0zM688.68 584.67 a3.3 3.3 0 1 0 6.6 0 a3.3 3.3 0 1 0 -6.6 0zM660.1 601.17 a3.3 3.3 0 1 0 6.6 0 a3.3 3.3 0 1 0 -6.6 0zM631.52 584.67 a3.3 3.3 0 1 0 6.6 0 a3.3 3.3 0 1 0 -6.6 0zM717.26 106.17 a3.3 3.3 0 1 0 6.6 0 a3.3 3.3 0 1 0 -6.6 0zM717.26 139.17 a3.3 3.3 0 1 0 6.6 0 a3.3 3.3 0 1 0 -6.6 0zM688.68 155.67 a3.3 3.3 0 1 0 6.6 0 a3.3 3.3 0 1 0 -6.6 0zM660.1 139.17 a3.3 3.3 0 1 0 6.6 0 a3.3 3.3 0 1 0 -6.6 0zM717.26 238.17 a3.3 3.3 0 1 0 6.6 0 a3.3 3.3 0 1 0 -6.6 0zM745.84 254.67 a3.3 3.3 0 1 0 6.6 0 a3.3 3.3 0 1 0 -6.6 0zM745.84 287.67 a3.3 3.3 0 1 0 6.6 0 a3.3 3.3 0 1 0 -6.6 0zM717.26 304.17 a3.3 3.3 0 1 0 6.6 0 a3.3 3.3 0 1 0 -6.6 0zM688.68 287.67 a3.3 3.3 0 1 0 6.6 0 a3.3 3.3 0 1 0 -6.6 0zM688.68 254.67 a3.3 3.3 0 1 0 6.6 0 a3.3 3.3 0 1 0 -6.6 0zM717.26 337.17 a3.3 3.3 0 1 0 6.6 0 a3.3 3.3 0 1 0 -6.6 0zM688.68 353.67 a3.3 3.3 0 1 0 6.6 0 a3.3 3.3 0 1 0 -6.6 0zM660.1 337.17 a3.3 3.3 0 1 0 6.6 0 a3.3 3.3 0 1 0 -6.6 0zM660.1 304.17 a3.3 3.3 0 1 0 6.6 0 a3.3 3.3 0 1 0 -6.6 0zM745.84 353.67 a3.3 3.3 0 1 0 6.6 0 a3.3 3.3 0 1 0 -6.6 0zM745.84 386.67 a3.3 3.3 0 1 0 6.6 0 a3.3 3.3 0 1 0 -6.6 0zM717.26 403.17 a3.3 3.3 0 1 0 6.6 0 a3.3 3.3 0 1 0 -6.6 0zM688.68 386.67 a3.3 3.3 0 1 0 6.6 0 a3.3 3.3 0 1 0 -6.6 0zM717.26 436.17 a3.3 3.3 0 1 0 6.6 0 a3.3 3.3 0 1 0 -6.6 0zM688.68 452.67 a3.3 3.3 0 1 0 6.6 0 a3.3 3.3 0 1 0 -6.6 0zM660.1 436.17 a3.3 3.3 0 1 0 6.6 0 a3.3 3.3 0 1 0 -6.6 0zM660.1 403.17 a3.3 3.3 0 1 0 6.6 0 a3.3 3.3 0 1 0 -6.6 0zM745.84 452.67 a3.3 3.3 0 1 0 6.6 0 a3.3 3.3 0 1 0 -6.6 0zM745.84 485.67 a3.3 3.3 0 1 0 6.6 0 a3.3 3.3 0 1 0 -6.6 0zM717.26 502.17 a3.3 3.3 0 1 0 6.6 0 a3.3 3.3 0 1 0 -6.6 0zM688.68 485.67 a3.3 3.3 0 1 0 6.6 0 a3.3 3.3 0 1 0 -6.6 0zM745.84 89.67 a3.3 3.3 0 1 0 6.6 0 a3.3 3.3 0 1 0 -6.6 0zM774.42 106.17 a3.3 3.3 0 1 0 6.6 0 a3.3 3.3 0 1 0 -6.6 0zM774.42 139.17 a3.3 3.3 0 1 0 6.6 0 a3.3 3.3 0 1 0 -6.6 0zM745.84 155.67 a3.3 3.3 0 1 0 6.6 0 a3.3 3.3 0 1 0 -6.6 0zM803 155.67 a3.3 3.3 0 1 0 6.6 0 a3.3 3.3 0 1 0 -6.6 0zM803 188.67 a3.3 3.3 0 1 0 6.6 0 a3.3 3.3 0 1 0 -6.6 0zM774.42 205.17 a3.3 3.3 0 1 0 6.6 0 a3.3 3.3 0 1 0 -6.6 0zM745.84 188.67 a3.3 3.3 0 1 0 6.6 0 a3.3 3.3 0 1 0 -6.6 0zM774.42 238.17 a3.3 3.3 0 1 0 6.6 0 a3.3 3.3 0 1 0 -6.6 0zM803 254.67 a3.3 3.3 0 1 0 6.6 0 a3.3 3.3 0 1 0 -6.6 0zM803 287.67 a3.3 3.3 0 1 0 6.6 0 a3.3 3.3 0 1 0 -6.6 0zM774.42 304.17 a3.3 3.3 0 1 0 6.6 0 a3.3 3.3 0 1 0 -6.6 0zM774.42 337.17 a3.3 3.3 0 1 0 6.6 0 a3.3 3.3 0 1 0 -6.6 0zM774.42 403.17 a3.3 3.3 0 1 0 6.6 0 a3.3 3.3 0 1 0 -6.6 0zM774.42 436.17 a3.3 3.3 0 1 0 6.6 0 a3.3 3.3 0 1 0 -6.6 0zM831.58 40.17 a3.3 3.3 0 1 0 6.6 0 a3.3 3.3 0 1 0 -6.6 0zM860.16 56.67 a3.3 3.3 0 1 0 6.6 0 a3.3 3.3 0 1 0 -6.6 0zM860.16 89.67 a3.3 3.3 0 1 0 6.6 0 a3.3 3.3 0 1 0 -6.6 0zM831.58 106.17 a3.3 3.3 0 1 0 6.6 0 a3.3 3.3 0 1 0 -6.6 0zM803 89.67 a3.3 3.3 0 1 0 6.6 0 a3.3 3.3 0 1 0 -6.6 0zM803 56.67 a3.3 3.3 0 1 0 6.6 0 a3.3 3.3 0 1 0 -6.6 0zM831.58 238.17 a3.3 3.3 0 1 0 6.6 0 a3.3 3.3 0 1 0 -6.6 0zM860.16 254.67 a3.3 3.3 0 1 0 6.6 0 a3.3 3.3 0 1 0 -6.6 0zM860.16 287.67 a3.3 3.3 0 1 0 6.6 0 a3.3 3.3 0 1 0 -6.6 0zM831.58 304.17 a3.3 3.3 0 1 0 6.6 0 a3.3 3.3 0 1 0 -6.6 0zM831.58 436.17 a3.3 3.3 0 1 0 6.6 0 a3.3 3.3 0 1 0 -6.6 0zM860.16 452.67 a3.3 3.3 0 1 0 6.6 0 a3.3 3.3 0 1 0 -6.6 0zM860.16 485.67 a3.3 3.3 0 1 0 6.6 0 a3.3 3.3 0 1 0 -6.6 0zM831.58 502.17 a3.3 3.3 0 1 0 6.6 0 a3.3 3.3 0 1 0 -6.6 0zM803 485.67 a3.3 3.3 0 1 0 6.6 0 a3.3 3.3 0 1 0 -6.6 0zM803 452.67 a3.3 3.3 0 1 0 6.6 0 a3.3 3.3 0 1 0 -6.6 0zM831.58 535.17 a3.3 3.3 0 1 0 6.6 0 a3.3 3.3 0 1 0 -6.6 0zM803 551.67 a3.3 3.3 0 1 0 6.6 0 a3.3 3.3 0 1 0 -6.6 0zM774.42 535.17 a3.3 3.3 0 1 0 6.6 0 a3.3 3.3 0 1 0 -6.6 0zM774.42 502.17 a3.3 3.3 0 1 0 6.6 0 a3.3 3.3 0 1 0 -6.6 0zM860.16 -9.33 a3.3 3.3 0 1 0 6.6 0 a3.3 3.3 0 1 0 -6.6 0zM888.74 7.17 a3.3 3.3 0 1 0 6.6 0 a3.3 3.3 0 1 0 -6.6 0zM888.74 40.17 a3.3 3.3 0 1 0 6.6 0 a3.3 3.3 0 1 0 -6.6 0zM831.58 7.17 a3.3 3.3 0 1 0 6.6 0 a3.3 3.3 0 1 0 -6.6 0zM888.74 106.17 a3.3 3.3 0 1 0 6.6 0 a3.3 3.3 0 1 0 -6.6 0zM888.74 139.17 a3.3 3.3 0 1 0 6.6 0 a3.3 3.3 0 1 0 -6.6 0zM860.16 155.67 a3.3 3.3 0 1 0 6.6 0 a3.3 3.3 0 1 0 -6.6 0zM831.58 139.17 a3.3 3.3 0 1 0 6.6 0 a3.3 3.3 0 1 0 -6.6 0zM888.74 238.17 a3.3 3.3 0 1 0 6.6 0 a3.3 3.3 0 1 0 -6.6 0zM917.32 254.67 a3.3 3.3 0 1 0 6.6 0 a3.3 3.3 0 1 0 -6.6 0zM917.32 287.67 a3.3 3.3 0 1 0 6.6 0 a3.3 3.3 0 1 0 -6.6 0zM888.74 304.17 a3.3 3.3 0 1 0 6.6 0 a3.3 3.3 0 1 0 -6.6 0zM860.16 386.67 a3.3 3.3 0 1 0 6.6 0 a3.3 3.3 0 1 0 -6.6 0zM888.74 403.17 a3.3 3.3 0 1 0 6.6 0 a3.3 3.3 0 1 0 -6.6 0zM888.74 436.17 a3.3 3.3 0 1 0 6.6 0 a3.3 3.3 0 1 0 -6.6 0zM831.58 403.17 a3.3 3.3 0 1 0 6.6 0 a3.3 3.3 0 1 0 -6.6 0zM917.32 452.67 a3.3 3.3 0 1 0 6.6 0 a3.3 3.3 0 1 0 -6.6 0zM917.32 485.67 a3.3 3.3 0 1 0 6.6 0 a3.3 3.3 0 1 0 -6.6 0zM888.74 502.17 a3.3 3.3 0 1 0 6.6 0 a3.3 3.3 0 1 0 -6.6 0zM917.32 -9.33 a3.3 3.3 0 1 0 6.6 0 a3.3 3.3 0 1 0 -6.6 0zM945.9 7.17 a3.3 3.3 0 1 0 6.6 0 a3.3 3.3 0 1 0 -6.6 0zM945.9 40.17 a3.3 3.3 0 1 0 6.6 0 a3.3 3.3 0 1 0 -6.6 0zM917.32 56.67 a3.3 3.3 0 1 0 6.6 0 a3.3 3.3 0 1 0 -6.6 0zM974.48 56.67 a3.3 3.3 0 1 0 6.6 0 a3.3 3.3 0 1 0 -6.6 0zM974.48 89.67 a3.3 3.3 0 1 0 6.6 0 a3.3 3.3 0 1 0 -6.6 0zM945.9 106.17 a3.3 3.3 0 1 0 6.6 0 a3.3 3.3 0 1 0 -6.6 0zM917.32 89.67 a3.3 3.3 0 1 0 6.6 0 a3.3 3.3 0 1 0 -6.6 0zM917.32 188.67 a3.3 3.3 0 1 0 6.6 0 a3.3 3.3 0 1 0 -6.6 0zM945.9 205.17 a3.3 3.3 0 1 0 6.6 0 a3.3 3.3 0 1 0 -6.6 0zM945.9 238.17 a3.3 3.3 0 1 0 6.6 0 a3.3 3.3 0 1 0 -6.6 0zM888.74 205.17 a3.3 3.3 0 1 0 6.6 0 a3.3 3.3 0 1 0 -6.6 0zM945.9 535.17 a3.3 3.3 0 1 0 6.6 0 a3.3 3.3 0 1 0 -6.6 0zM974.48 551.67 a3.3 3.3 0 1 0 6.6 0 a3.3 3.3 0 1 0 -6.6 0zM974.48 584.67 a3.3 3.3 0 1 0 6.6 0 a3.3 3.3 0 1 0 -6.6 0zM945.9 601.17 a3.3 3.3 0 1 0 6.6 0 a3.3 3.3 0 1 0 -6.6 0zM917.32 584.67 a3.3 3.3 0 1 0 6.6 0 a3.3 3.3 0 1 0 -6.6 0zM917.32 551.67 a3.3 3.3 0 1 0 6.6 0 a3.3 3.3 0 1 0 -6.6 0zM974.48 287.67 a3.3 3.3 0 1 0 6.6 0 a3.3 3.3 0 1 0 -6.6 0zM1003.06 304.17 a3.3 3.3 0 1 0 6.6 0 a3.3 3.3 0 1 0 -6.6 0zM1003.06 337.17 a3.3 3.3 0 1 0 6.6 0 a3.3 3.3 0 1 0 -6.6 0zM974.48 353.67 a3.3 3.3 0 1 0 6.6 0 a3.3 3.3 0 1 0 -6.6 0zM945.9 337.17 a3.3 3.3 0 1 0 6.6 0 a3.3 3.3 0 1 0 -6.6 0zM945.9 304.17 a3.3 3.3 0 1 0 6.6 0 a3.3 3.3 0 1 0 -6.6 0zM974.48 485.67 a3.3 3.3 0 1 0 6.6 0 a3.3 3.3 0 1 0 -6.6 0zM1003.06 502.17 a3.3 3.3 0 1 0 6.6 0 a3.3 3.3 0 1 0 -6.6 0zM1003.06 535.17 a3.3 3.3 0 1 0 6.6 0 a3.3 3.3 0 1 0 -6.6 0zM945.9 502.17 a3.3 3.3 0 1 0 6.6 0 a3.3 3.3 0 1 0 -6.6 0zM1060.22 40.17 a3.3 3.3 0 1 0 6.6 0 a3.3 3.3 0 1 0 -6.6 0zM1088.8 56.67 a3.3 3.3 0 1 0 6.6 0 a3.3 3.3 0 1 0 -6.6 0zM1088.8 89.67 a3.3 3.3 0 1 0 6.6 0 a3.3 3.3 0 1 0 -6.6 0zM1060.22 106.17 a3.3 3.3 0 1 0 6.6 0 a3.3 3.3 0 1 0 -6.6 0zM1031.64 89.67 a3.3 3.3 0 1 0 6.6 0 a3.3 3.3 0 1 0 -6.6 0zM1031.64 56.67 a3.3 3.3 0 1 0 6.6 0 a3.3 3.3 0 1 0 -6.6 0zM1060.22 139.17 a3.3 3.3 0 1 0 6.6 0 a3.3 3.3 0 1 0 -6.6 0zM1088.8 155.67 a3.3 3.3 0 1 0 6.6 0 a3.3 3.3 0 1 0 -6.6 0zM1088.8 188.67 a3.3 3.3 0 1 0 6.6 0 a3.3 3.3 0 1 0 -6.6 0zM1060.22 205.17 a3.3 3.3 0 1 0 6.6 0 a3.3 3.3 0 1 0 -6.6 0zM1031.64 188.67 a3.3 3.3 0 1 0 6.6 0 a3.3 3.3 0 1 0 -6.6 0zM1031.64 155.67 a3.3 3.3 0 1 0 6.6 0 a3.3 3.3 0 1 0 -6.6 0zM1060.22 337.17 a3.3 3.3 0 1 0 6.6 0 a3.3 3.3 0 1 0 -6.6 0zM1088.8 353.67 a3.3 3.3 0 1 0 6.6 0 a3.3 3.3 0 1 0 -6.6 0zM1088.8 386.67 a3.3 3.3 0 1 0 6.6 0 a3.3 3.3 0 1 0 -6.6 0zM1060.22 403.17 a3.3 3.3 0 1 0 6.6 0 a3.3 3.3 0 1 0 -6.6 0zM1031.64 386.67 a3.3 3.3 0 1 0 6.6 0 a3.3 3.3 0 1 0 -6.6 0zM1031.64 353.67 a3.3 3.3 0 1 0 6.6 0 a3.3 3.3 0 1 0 -6.6 0zM1060.22 535.17 a3.3 3.3 0 1 0 6.6 0 a3.3 3.3 0 1 0 -6.6 0zM1088.8 551.67 a3.3 3.3 0 1 0 6.6 0 a3.3 3.3 0 1 0 -6.6 0zM1088.8 584.67 a3.3 3.3 0 1 0 6.6 0 a3.3 3.3 0 1 0 -6.6 0zM1060.22 601.17 a3.3 3.3 0 1 0 6.6 0 a3.3 3.3 0 1 0 -6.6 0zM1031.64 584.67 a3.3 3.3 0 1 0 6.6 0 a3.3 3.3 0 1 0 -6.6 0zM1031.64 551.67 a3.3 3.3 0 1 0 6.6 0 a3.3 3.3 0 1 0 -6.6 0zM1117.38 106.17 a3.3 3.3 0 1 0 6.6 0 a3.3 3.3 0 1 0 -6.6 0zM1117.38 139.17 a3.3 3.3 0 1 0 6.6 0 a3.3 3.3 0 1 0 -6.6 0zM1145.96 155.67 a3.3 3.3 0 1 0 6.6 0 a3.3 3.3 0 1 0 -6.6 0zM1145.96 188.67 a3.3 3.3 0 1 0 6.6 0 a3.3 3.3 0 1 0 -6.6 0zM1117.38 205.17 a3.3 3.3 0 1 0 6.6 0 a3.3 3.3 0 1 0 -6.6 0zM1117.38 337.17 a3.3 3.3 0 1 0 6.6 0 a3.3 3.3 0 1 0 -6.6 0zM1145.96 353.67 a3.3 3.3 0 1 0 6.6 0 a3.3 3.3 0 1 0 -6.6 0zM1145.96 386.67 a3.3 3.3 0 1 0 6.6 0 a3.3 3.3 0 1 0 -6.6 0zM1117.38 403.17 a3.3 3.3 0 1 0 6.6 0 a3.3 3.3 0 1 0 -6.6 0zM1117.38 535.17 a3.3 3.3 0 1 0 6.6 0 a3.3 3.3 0 1 0 -6.6 0zM1145.96 551.67 a3.3 3.3 0 1 0 6.6 0 a3.3 3.3 0 1 0 -6.6 0zM1145.96 584.67 a3.3 3.3 0 1 0 6.6 0 a3.3 3.3 0 1 0 -6.6 0zM1117.38 601.17 a3.3 3.3 0 1 0 6.6 0 a3.3 3.3 0 1 0 -6.6 0zM1174.54 40.17 a3.3 3.3 0 1 0 6.6 0 a3.3 3.3 0 1 0 -6.6 0zM1203.12 56.67 a3.3 3.3 0 1 0 6.6 0 a3.3 3.3 0 1 0 -6.6 0zM1203.12 89.67 a3.3 3.3 0 1 0 6.6 0 a3.3 3.3 0 1 0 -6.6 0zM1174.54 106.17 a3.3 3.3 0 1 0 6.6 0 a3.3 3.3 0 1 0 -6.6 0zM1145.96 89.67 a3.3 3.3 0 1 0 6.6 0 a3.3 3.3 0 1 0 -6.6 0zM1145.96 56.67 a3.3 3.3 0 1 0 6.6 0 a3.3 3.3 0 1 0 -6.6 0zM1174.54 403.17 a3.3 3.3 0 1 0 6.6 0 a3.3 3.3 0 1 0 -6.6 0zM1174.54 436.17 a3.3 3.3 0 1 0 6.6 0 a3.3 3.3 0 1 0 -6.6 0zM1145.96 452.67 a3.3 3.3 0 1 0 6.6 0 a3.3 3.3 0 1 0 -6.6 0zM1117.38 436.17 a3.3 3.3 0 1 0 6.6 0 a3.3 3.3 0 1 0 -6.6 0zM1145.96 485.67 a3.3 3.3 0 1 0 6.6 0 a3.3 3.3 0 1 0 -6.6 0zM1174.54 502.17 a3.3 3.3 0 1 0 6.6 0 a3.3 3.3 0 1 0 -6.6 0zM1174.54 535.17 a3.3 3.3 0 1 0 6.6 0 a3.3 3.3 0 1 0 -6.6 0zM1117.38 502.17 a3.3 3.3 0 1 0 6.6 0 a3.3 3.3 0 1 0 -6.6 0zM1203.12 551.67 a3.3 3.3 0 1 0 6.6 0 a3.3 3.3 0 1 0 -6.6 0zM1203.12 584.67 a3.3 3.3 0 1 0 6.6 0 a3.3 3.3 0 1 0 -6.6 0zM1174.54 601.17 a3.3 3.3 0 1 0 6.6 0 a3.3 3.3 0 1 0 -6.6 0zM1231.69 106.17 a3.3 3.3 0 1 0 6.6 0 a3.3 3.3 0 1 0 -6.6 0zM1231.69 139.17 a3.3 3.3 0 1 0 6.6 0 a3.3 3.3 0 1 0 -6.6 0zM1203.12 155.67 a3.3 3.3 0 1 0 6.6 0 a3.3 3.3 0 1 0 -6.6 0zM1174.54 139.17 a3.3 3.3 0 1 0 6.6 0 a3.3 3.3 0 1 0 -6.6 0zM1260.27 155.67 a3.3 3.3 0 1 0 6.6 0 a3.3 3.3 0 1 0 -6.6 0zM1260.27 188.67 a3.3 3.3 0 1 0 6.6 0 a3.3 3.3 0 1 0 -6.6 0zM1231.69 205.17 a3.3 3.3 0 1 0 6.6 0 a3.3 3.3 0 1 0 -6.6 0zM1203.12 188.67 a3.3 3.3 0 1 0 6.6 0 a3.3 3.3 0 1 0 -6.6 0zM1231.69 337.17 a3.3 3.3 0 1 0 6.6 0 a3.3 3.3 0 1 0 -6.6 0zM1260.27 353.67 a3.3 3.3 0 1 0 6.6 0 a3.3 3.3 0 1 0 -6.6 0zM1260.27 386.67 a3.3 3.3 0 1 0 6.6 0 a3.3 3.3 0 1 0 -6.6 0zM1231.69 403.17 a3.3 3.3 0 1 0 6.6 0 a3.3 3.3 0 1 0 -6.6 0zM1203.12 386.67 a3.3 3.3 0 1 0 6.6 0 a3.3 3.3 0 1 0 -6.6 0zM1203.12 353.67 a3.3 3.3 0 1 0 6.6 0 a3.3 3.3 0 1 0 -6.6 0zM1231.69 436.17 a3.3 3.3 0 1 0 6.6 0 a3.3 3.3 0 1 0 -6.6 0zM1260.27 452.67 a3.3 3.3 0 1 0 6.6 0 a3.3 3.3 0 1 0 -6.6 0zM1260.27 485.67 a3.3 3.3 0 1 0 6.6 0 a3.3 3.3 0 1 0 -6.6 0zM1231.69 502.17 a3.3 3.3 0 1 0 6.6 0 a3.3 3.3 0 1 0 -6.6 0zM1203.12 485.67 a3.3 3.3 0 1 0 6.6 0 a3.3 3.3 0 1 0 -6.6 0zM1203.12 452.67 a3.3 3.3 0 1 0 6.6 0 a3.3 3.3 0 1 0 -6.6 0zM1231.69 535.17 a3.3 3.3 0 1 0 6.6 0 a3.3 3.3 0 1 0 -6.6 0zM1260.27 551.67 a3.3 3.3 0 1 0 6.6 0 a3.3 3.3 0 1 0 -6.6 0zM1260.27 584.67 a3.3 3.3 0 1 0 6.6 0 a3.3 3.3 0 1 0 -6.6 0zM1231.69 601.17 a3.3 3.3 0 1 0 6.6 0 a3.3 3.3 0 1 0 -6.6 0zM1288.85 139.17 a3.3 3.3 0 1 0 6.6 0 a3.3 3.3 0 1 0 -6.6 0zM1317.43 155.67 a3.3 3.3 0 1 0 6.6 0 a3.3 3.3 0 1 0 -6.6 0zM1317.43 188.67 a3.3 3.3 0 1 0 6.6 0 a3.3 3.3 0 1 0 -6.6 0zM1288.85 205.17 a3.3 3.3 0 1 0 6.6 0 a3.3 3.3 0 1 0 -6.6 0zM1288.85 238.17 a3.3 3.3 0 1 0 6.6 0 a3.3 3.3 0 1 0 -6.6 0zM1260.27 254.67 a3.3 3.3 0 1 0 6.6 0 a3.3 3.3 0 1 0 -6.6 0zM1231.69 238.17 a3.3 3.3 0 1 0 6.6 0 a3.3 3.3 0 1 0 -6.6 0zM1288.85 403.17 a3.3 3.3 0 1 0 6.6 0 a3.3 3.3 0 1 0 -6.6 0zM1288.85 436.17 a3.3 3.3 0 1 0 6.6 0 a3.3 3.3 0 1 0 -6.6 0zM1317.43 452.67 a3.3 3.3 0 1 0 6.6 0 a3.3 3.3 0 1 0 -6.6 0zM1317.43 485.67 a3.3 3.3 0 1 0 6.6 0 a3.3 3.3 0 1 0 -6.6 0zM1288.85 502.17 a3.3 3.3 0 1 0 6.6 0 a3.3 3.3 0 1 0 -6.6 0zM1288.85 535.17 a3.3 3.3 0 1 0 6.6 0 a3.3 3.3 0 1 0 -6.6 0zM1317.43 551.67 a3.3 3.3 0 1 0 6.6 0 a3.3 3.3 0 1 0 -6.6 0zM1317.43 584.67 a3.3 3.3 0 1 0 6.6 0 a3.3 3.3 0 1 0 -6.6 0zM1288.85 601.17 a3.3 3.3 0 1 0 6.6 0 a3.3 3.3 0 1 0 -6.6 0zM1346.01 205.17 a3.3 3.3 0 1 0 6.6 0 a3.3 3.3 0 1 0 -6.6 0zM1346.01 238.17 a3.3 3.3 0 1 0 6.6 0 a3.3 3.3 0 1 0 -6.6 0zM1317.43 254.67 a3.3 3.3 0 1 0 6.6 0 a3.3 3.3 0 1 0 -6.6 0zM1346.01 337.17 a3.3 3.3 0 1 0 6.6 0 a3.3 3.3 0 1 0 -6.6 0zM1374.59 353.67 a3.3 3.3 0 1 0 6.6 0 a3.3 3.3 0 1 0 -6.6 0zM1374.59 386.67 a3.3 3.3 0 1 0 6.6 0 a3.3 3.3 0 1 0 -6.6 0zM1346.01 403.17 a3.3 3.3 0 1 0 6.6 0 a3.3 3.3 0 1 0 -6.6 0zM1317.43 386.67 a3.3 3.3 0 1 0 6.6 0 a3.3 3.3 0 1 0 -6.6 0zM1317.43 353.67 a3.3 3.3 0 1 0 6.6 0 a3.3 3.3 0 1 0 -6.6 0zM1346.01 436.17 a3.3 3.3 0 1 0 6.6 0 a3.3 3.3 0 1 0 -6.6 0zM1346.01 502.17 a3.3 3.3 0 1 0 6.6 0 a3.3 3.3 0 1 0 -6.6 0zM1346.01 535.17 a3.3 3.3 0 1 0 6.6 0 a3.3 3.3 0 1 0 -6.6 0zM1374.59 -9.33 a3.3 3.3 0 1 0 6.6 0 a3.3 3.3 0 1 0 -6.6 0zM1403.17 7.17 a3.3 3.3 0 1 0 6.6 0 a3.3 3.3 0 1 0 -6.6 0zM1403.17 40.17 a3.3 3.3 0 1 0 6.6 0 a3.3 3.3 0 1 0 -6.6 0zM1374.59 56.67 a3.3 3.3 0 1 0 6.6 0 a3.3 3.3 0 1 0 -6.6 0zM1346.01 40.17 a3.3 3.3 0 1 0 6.6 0 a3.3 3.3 0 1 0 -6.6 0zM1346.01 7.17 a3.3 3.3 0 1 0 6.6 0 a3.3 3.3 0 1 0 -6.6 0zM1431.75 56.67 a3.3 3.3 0 1 0 6.6 0 a3.3 3.3 0 1 0 -6.6 0zM1431.75 89.67 a3.3 3.3 0 1 0 6.6 0 a3.3 3.3 0 1 0 -6.6 0zM1403.17 106.17 a3.3 3.3 0 1 0 6.6 0 a3.3 3.3 0 1 0 -6.6 0zM1374.59 89.67 a3.3 3.3 0 1 0 6.6 0 a3.3 3.3 0 1 0 -6.6 0zM1374.59 188.67 a3.3 3.3 0 1 0 6.6 0 a3.3 3.3 0 1 0 -6.6 0zM1403.17 205.17 a3.3 3.3 0 1 0 6.6 0 a3.3 3.3 0 1 0 -6.6 0zM1403.17 238.17 a3.3 3.3 0 1 0 6.6 0 a3.3 3.3 0 1 0 -6.6 0zM1374.59 254.67 a3.3 3.3 0 1 0 6.6 0 a3.3 3.3 0 1 0 -6.6 0zM1374.59 287.67 a3.3 3.3 0 1 0 6.6 0 a3.3 3.3 0 1 0 -6.6 0zM1403.17 304.17 a3.3 3.3 0 1 0 6.6 0 a3.3 3.3 0 1 0 -6.6 0zM1403.17 337.17 a3.3 3.3 0 1 0 6.6 0 a3.3 3.3 0 1 0 -6.6 0zM1346.01 304.17 a3.3 3.3 0 1 0 6.6 0 a3.3 3.3 0 1 0 -6.6 0zM1431.75 353.67 a3.3 3.3 0 1 0 6.6 0 a3.3 3.3 0 1 0 -6.6 0zM1431.75 386.67 a3.3 3.3 0 1 0 6.6 0 a3.3 3.3 0 1 0 -6.6 0zM1403.17 403.17 a3.3 3.3 0 1 0 6.6 0 a3.3 3.3 0 1 0 -6.6 0zM1403.17 436.17 a3.3 3.3 0 1 0 6.6 0 a3.3 3.3 0 1 0 -6.6 0zM1374.59 452.67 a3.3 3.3 0 1 0 6.6 0 a3.3 3.3 0 1 0 -6.6 0zM1431.75 452.67 a3.3 3.3 0 1 0 6.6 0 a3.3 3.3 0 1 0 -6.6 0zM1431.75 485.67 a3.3 3.3 0 1 0 6.6 0 a3.3 3.3 0 1 0 -6.6 0zM1403.17 502.17 a3.3 3.3 0 1 0 6.6 0 a3.3 3.3 0 1 0 -6.6 0zM1374.59 485.67 a3.3 3.3 0 1 0 6.6 0 a3.3 3.3 0 1 0 -6.6 0zM1403.17 535.17 a3.3 3.3 0 1 0 6.6 0 a3.3 3.3 0 1 0 -6.6 0zM1431.75 551.67 a3.3 3.3 0 1 0 6.6 0 a3.3 3.3 0 1 0 -6.6 0zM1431.75 584.67 a3.3 3.3 0 1 0 6.6 0 a3.3 3.3 0 1 0 -6.6 0zM1403.17 601.17 a3.3 3.3 0 1 0 6.6 0 a3.3 3.3 0 1 0 -6.6 0zM1374.59 584.67 a3.3 3.3 0 1 0 6.6 0 a3.3 3.3 0 1 0 -6.6 0zM1374.59 551.67 a3.3 3.3 0 1 0 6.6 0 a3.3 3.3 0 1 0 -6.6 0zM1460.33 106.17 a3.3 3.3 0 1 0 6.6 0 a3.3 3.3 0 1 0 -6.6 0zM1460.33 139.17 a3.3 3.3 0 1 0 6.6 0 a3.3 3.3 0 1 0 -6.6 0zM1431.75 155.67 a3.3 3.3 0 1 0 6.6 0 a3.3 3.3 0 1 0 -6.6 0zM1403.17 139.17 a3.3 3.3 0 1 0 6.6 0 a3.3 3.3 0 1 0 -6.6 0zM1431.75 287.67 a3.3 3.3 0 1 0 6.6 0 a3.3 3.3 0 1 0 -6.6 0zM1460.33 304.17 a3.3 3.3 0 1 0 6.6 0 a3.3 3.3 0 1 0 -6.6 0zM1460.33 337.17 a3.3 3.3 0 1 0 6.6 0 a3.3 3.3 0 1 0 -6.6 0zM1488.91 353.67 a3.3 3.3 0 1 0 6.6 0 a3.3 3.3 0 1 0 -6.6 0zM1488.91 386.67 a3.3 3.3 0 1 0 6.6 0 a3.3 3.3 0 1 0 -6.6 0zM1460.33 403.17 a3.3 3.3 0 1 0 6.6 0 a3.3 3.3 0 1 0 -6.6 0zM1460.33 436.17 a3.3 3.3 0 1 0 6.6 0 a3.3 3.3 0 1 0 -6.6 0zM1488.91 452.67 a3.3 3.3 0 1 0 6.6 0 a3.3 3.3 0 1 0 -6.6 0zM1488.91 485.67 a3.3 3.3 0 1 0 6.6 0 a3.3 3.3 0 1 0 -6.6 0zM1460.33 502.17 a3.3 3.3 0 1 0 6.6 0 a3.3 3.3 0 1 0 -6.6 0z" fill="url(&quot;#SvgjsLinearGradient1133&quot;)"></path><path d="M329.18 86.65L414.05 135.65L414.05 233.65L329.18 282.65L244.31 233.65L244.31 135.65zM329.18 380.65L414.05 429.65L414.05 527.65L329.18 576.65L244.31 527.65L244.31 429.65zM244.31 527.65L329.18 576.65L329.18 674.65L244.31 723.65L159.43 674.65L159.43 576.65zM583.8 -60.35L668.67 -11.35L668.67 86.65L583.8 135.65L498.92 86.65L498.92 -11.35zM753.54 -60.35L838.42 -11.35L838.42 86.65L753.54 135.65L668.67 86.65L668.67 -11.35zM753.54 527.65L838.42 576.65L838.42 674.65L753.54 723.65L668.67 674.65L668.67 576.65zM1177.91 86.65L1262.78 135.65L1262.78 233.65L1177.91 282.65L1093.03 233.65L1093.03 135.65zM1347.65 86.65L1432.53 135.65L1432.53 233.65L1347.65 282.65L1262.78 233.65L1262.78 135.65z" stroke="#03305d" stroke-width="2"></path><path d="M319.38 86.65 a9.8 9.8 0 1 0 19.6 0 a9.8 9.8 0 1 0 -19.6 0zM404.25 135.65 a9.8 9.8 0 1 0 19.6 0 a9.8 9.8 0 1 0 -19.6 0zM404.25 233.65 a9.8 9.8 0 1 0 19.6 0 a9.8 9.8 0 1 0 -19.6 0zM319.38 282.65 a9.8 9.8 0 1 0 19.6 0 a9.8 9.8 0 1 0 -19.6 0zM234.51 233.65 a9.8 9.8 0 1 0 19.6 0 a9.8 9.8 0 1 0 -19.6 0zM234.51 135.65 a9.8 9.8 0 1 0 19.6 0 a9.8 9.8 0 1 0 -19.6 0zM319.38 380.65 a9.8 9.8 0 1 0 19.6 0 a9.8 9.8 0 1 0 -19.6 0zM404.25 429.65 a9.8 9.8 0 1 0 19.6 0 a9.8 9.8 0 1 0 -19.6 0zM404.25 527.65 a9.8 9.8 0 1 0 19.6 0 a9.8 9.8 0 1 0 -19.6 0zM319.38 576.65 a9.8 9.8 0 1 0 19.6 0 a9.8 9.8 0 1 0 -19.6 0zM234.51 527.65 a9.8 9.8 0 1 0 19.6 0 a9.8 9.8 0 1 0 -19.6 0zM234.51 429.65 a9.8 9.8 0 1 0 19.6 0 a9.8 9.8 0 1 0 -19.6 0zM319.38 674.65 a9.8 9.8 0 1 0 19.6 0 a9.8 9.8 0 1 0 -19.6 0zM234.51 723.65 a9.8 9.8 0 1 0 19.6 0 a9.8 9.8 0 1 0 -19.6 0zM149.63 674.65 a9.8 9.8 0 1 0 19.6 0 a9.8 9.8 0 1 0 -19.6 0zM149.63 576.65 a9.8 9.8 0 1 0 19.6 0 a9.8 9.8 0 1 0 -19.6 0zM574 -60.35 a9.8 9.8 0 1 0 19.6 0 a9.8 9.8 0 1 0 -19.6 0zM658.87 -11.35 a9.8 9.8 0 1 0 19.6 0 a9.8 9.8 0 1 0 -19.6 0zM658.87 86.65 a9.8 9.8 0 1 0 19.6 0 a9.8 9.8 0 1 0 -19.6 0zM574 135.65 a9.8 9.8 0 1 0 19.6 0 a9.8 9.8 0 1 0 -19.6 0zM489.12 86.65 a9.8 9.8 0 1 0 19.6 0 a9.8 9.8 0 1 0 -19.6 0zM489.12 -11.35 a9.8 9.8 0 1 0 19.6 0 a9.8 9.8 0 1 0 -19.6 0zM743.74 -60.35 a9.8 9.8 0 1 0 19.6 0 a9.8 9.8 0 1 0 -19.6 0zM828.62 -11.35 a9.8 9.8 0 1 0 19.6 0 a9.8 9.8 0 1 0 -19.6 0zM828.62 86.65 a9.8 9.8 0 1 0 19.6 0 a9.8 9.8 0 1 0 -19.6 0zM743.74 135.65 a9.8 9.8 0 1 0 19.6 0 a9.8 9.8 0 1 0 -19.6 0zM743.74 527.65 a9.8 9.8 0 1 0 19.6 0 a9.8 9.8 0 1 0 -19.6 0zM828.62 576.65 a9.8 9.8 0 1 0 19.6 0 a9.8 9.8 0 1 0 -19.6 0zM828.62 674.65 a9.8 9.8 0 1 0 19.6 0 a9.8 9.8 0 1 0 -19.6 0zM743.74 723.65 a9.8 9.8 0 1 0 19.6 0 a9.8 9.8 0 1 0 -19.6 0zM658.87 674.65 a9.8 9.8 0 1 0 19.6 0 a9.8 9.8 0 1 0 -19.6 0zM658.87 576.65 a9.8 9.8 0 1 0 19.6 0 a9.8 9.8 0 1 0 -19.6 0zM1168.11 86.65 a9.8 9.8 0 1 0 19.6 0 a9.8 9.8 0 1 0 -19.6 0zM1252.98 135.65 a9.8 9.8 0 1 0 19.6 0 a9.8 9.8 0 1 0 -19.6 0zM1252.98 233.65 a9.8 9.8 0 1 0 19.6 0 a9.8 9.8 0 1 0 -19.6 0zM1168.11 282.65 a9.8 9.8 0 1 0 19.6 0 a9.8 9.8 0 1 0 -19.6 0zM1083.23 233.65 a9.8 9.8 0 1 0 19.6 0 a9.8 9.8 0 1 0 -19.6 0zM1083.23 135.65 a9.8 9.8 0 1 0 19.6 0 a9.8 9.8 0 1 0 -19.6 0zM1337.85 86.65 a9.8 9.8 0 1 0 19.6 0 a9.8 9.8 0 1 0 -19.6 0zM1422.73 135.65 a9.8 9.8 0 1 0 19.6 0 a9.8 9.8 0 1 0 -19.6 0zM1422.73 233.65 a9.8 9.8 0 1 0 19.6 0 a9.8 9.8 0 1 0 -19.6 0zM1337.85 282.65 a9.8 9.8 0 1 0 19.6 0 a9.8 9.8 0 1 0 -19.6 0z" fill="#03305d"></path><path d="M86.25 41.54L129.56 66.54L129.56 116.54L86.25 141.54L42.95 116.54L42.95 66.54zM86.25 341.54L129.56 366.54L129.56 416.54L86.25 441.54L42.95 416.54L42.95 366.54zM172.86 491.54L216.16 516.54L216.16 566.54L172.86 591.54L129.56 566.54L129.56 516.54zM259.46 41.54L302.76 66.54L302.76 116.54L259.46 141.54L216.16 116.54L216.16 66.54zM216.16 116.54L259.46 141.54L259.46 191.54L216.16 216.54L172.86 191.54L172.86 141.54zM216.16 266.54L259.46 291.54L259.46 341.54L216.16 366.54L172.86 341.54L172.86 291.54zM346.07 191.54L389.37 216.54L389.37 266.54L346.07 291.54L302.76 266.54L302.76 216.54zM302.76 416.54L346.07 441.54L346.07 491.54L302.76 516.54L259.46 491.54L259.46 441.54zM389.37 266.54L432.67 291.54L432.67 341.54L389.37 366.54L346.07 341.54L346.07 291.54zM432.67 491.54L475.98 516.54L475.98 566.54L432.67 591.54L389.37 566.54L389.37 516.54zM475.98 116.54L519.28 141.54L519.28 191.54L475.98 216.54L432.67 191.54L432.67 141.54zM519.28 341.54L562.58 366.54L562.58 416.54L519.28 441.54L475.98 416.54L475.98 366.54zM692.49 41.54L735.79 66.54L735.79 116.54L692.49 141.54L649.19 116.54L649.19 66.54zM692.49 191.54L735.79 216.54L735.79 266.54L692.49 291.54L649.19 266.54L649.19 216.54zM649.19 266.54L692.49 291.54L692.49 341.54L649.19 366.54L605.88 341.54L605.88 291.54zM779.09 491.54L822.4 516.54L822.4 566.54L779.09 591.54L735.79 566.54L735.79 516.54zM822.4 266.54L865.7 291.54L865.7 341.54L822.4 366.54L779.09 341.54L779.09 291.54zM952.3 41.54L995.61 66.54L995.61 116.54L952.3 141.54L909 116.54L909 66.54zM909 116.54L952.3 141.54L952.3 191.54L909 216.54L865.7 191.54L865.7 141.54zM909 416.54L952.3 441.54L952.3 491.54L909 516.54L865.7 491.54L865.7 441.54zM995.61 -33.46L1038.91 -8.46L1038.91 41.54L995.61 66.54L952.3 41.54L952.3 -8.46zM1038.91 341.54L1082.21 366.54L1082.21 416.54L1038.91 441.54L995.61 416.54L995.61 366.54zM1168.82 266.54L1212.12 291.54L1212.12 341.54L1168.82 366.54L1125.51 341.54L1125.51 291.54zM1298.72 41.54L1342.03 66.54L1342.03 116.54L1298.72 141.54L1255.42 116.54L1255.42 66.54zM1298.72 191.54L1342.03 216.54L1342.03 266.54L1298.72 291.54L1255.42 266.54L1255.42 216.54zM1342.03 266.54L1385.33 291.54L1385.33 341.54L1342.03 366.54L1298.72 341.54L1298.72 291.54zM1385.33 341.54L1428.63 366.54L1428.63 416.54L1385.33 441.54L1342.03 416.54L1342.03 366.54zM1342.03 416.54L1385.33 441.54L1385.33 491.54L1342.03 516.54L1298.72 491.54L1298.72 441.54zM1428.63 -33.46L1471.93 -8.46L1471.93 41.54L1428.63 66.54L1385.33 41.54L1385.33 -8.46zM1428.63 116.54L1471.93 141.54L1471.93 191.54L1428.63 216.54L1385.33 191.54L1385.33 141.54zM1428.63 266.54L1471.93 291.54L1471.93 341.54L1428.63 366.54L1385.33 341.54L1385.33 291.54zM1428.63 416.54L1471.93 441.54L1471.93 491.54L1428.63 516.54L1385.33 491.54L1385.33 441.54z" stroke="rgba(6, 80, 156, 0.93)" stroke-width="2"></path></g><defs><mask id="SvgjsMask1132"><rect width="1440" height="560" fill="#ffffff"></rect></mask><linearGradient x1="1219.9679999999998" y1="780.024" x2="220.03199999999998" y2="-220.02399999999997" gradientUnits="userSpaceOnUse" id="SvgjsLinearGradient1133"><stop stop-color="#0e2a47" offset="0"></stop><stop stop-color="rgba(23, 112, 227, 1)" offset="1"></stop></linearGradient></defs></svg>